<svg width="24" height="23" viewBox="0 0 24 23" fill="none" xmlns="http://www.w3.org/2000/svg">
<path d="M18 8.12501C19.6569 8.12501 21 6.89136 21 5.36957C21 3.84779 19.6569 2.61414 18 2.61414C16.3431 2.61414 15 3.84779 15 5.36957C15 6.89136 16.3431 8.12501 18 8.12501Z" stroke="#002681" stroke-width="2" stroke-linecap="round" stroke-linejoin="round"/>
<path d="M6 14.5544C7.65685 14.5544 9 13.3208 9 11.799C9 10.2772 7.65685 9.04358 6 9.04358C4.34315 9.04358 3 10.2772 3 11.799C3 13.3208 4.34315 14.5544 6 14.5544Z" stroke="#002681" stroke-width="2" stroke-linecap="round" stroke-linejoin="round"/>
<path d="M18 20.9838C19.6569 20.9838 21 19.7501 21 18.2283C21 16.7066 19.6569 15.4729 18 15.4729C16.3431 15.4729 15 16.7066 15 18.2283C15 19.7501 16.3431 20.9838 18 20.9838Z" stroke="#002681" stroke-width="2" stroke-linecap="round" stroke-linejoin="round"/>
<path d="M8.58997 13.1859L15.42 16.8415" stroke="#002681" stroke-width="2" stroke-linecap="round" stroke-linejoin="round"/>
<path d="M15.41 6.75647L8.58997 10.412" stroke="#002681" stroke-width="2" stroke-linecap="round" stroke-linejoin="round"/>
</svg>
